<svg width="24" height="25" viewBox="0 0 24 25" fill="none" xmlns="http://www.w3.org/2000/svg">
<path d="M20.0597 11.5634H22.0146C22.0146 6.54921 18.229 2.76758 13.208 2.76758V4.72242C17.1783 4.72242 20.0597 7.59896 20.0597 11.5634Z" fill="white"/>
<path d="M13.2178 8.63175C15.2733 8.63175 16.1501 9.5085 16.1501 11.564H18.1049C18.1049 8.41184 16.37 6.67692 13.2178 6.67692V8.63175ZM16.5626 13.9518C16.3747 13.7811 16.1279 13.6901 15.8743 13.6979C15.6206 13.7058 15.3799 13.8119 15.203 13.9939L12.864 16.3993C12.301 16.2918 11.1692 15.9389 10.0041 14.7768C8.83899 13.6107 8.48614 12.4759 8.38156 11.9169L10.785 9.57692C10.9672 9.40013 11.0735 9.15939 11.0813 8.90563C11.0892 8.65188 10.998 8.40503 10.8271 8.21733L7.2155 4.24607C7.04449 4.05778 6.80682 3.94357 6.55296 3.92769C6.29909 3.91181 6.04904 3.99552 5.85591 4.16104L3.73491 5.98002C3.56592 6.14961 3.46506 6.37533 3.45145 6.61436C3.43679 6.85872 3.15725 12.647 7.64556 17.1373C11.5611 21.0518 16.4658 21.3382 17.8166 21.3382C18.014 21.3382 18.1352 21.3323 18.1675 21.3304C18.4065 21.317 18.6321 21.2157 18.8008 21.046L20.6188 18.924C20.7845 18.731 20.8684 18.481 20.8527 18.2271C20.837 17.9733 20.7229 17.7355 20.5348 17.5644L16.5626 13.9518Z" fill="white"/>
</svg>
