<svg width="21" height="20" viewBox="0 0 21 20" fill="none" xmlns="http://www.w3.org/2000/svg">
<path d="M20 9.9994H7.645M3.284 9.9994H1.5M3.284 9.9994C3.284 9.42123 3.51368 8.86674 3.92251 8.45791C4.33134 8.04908 4.88583 7.8194 5.464 7.8194C6.04217 7.8194 6.59666 8.04908 7.00549 8.45791C7.41432 8.86674 7.644 9.42123 7.644 9.9994C7.644 10.5776 7.41432 11.1321 7.00549 11.5409C6.59666 11.9497 6.04217 12.1794 5.464 12.1794C4.88583 12.1794 4.33134 11.9497 3.92251 11.5409C3.51368 11.1321 3.284 10.5776 3.284 9.9994ZM20 16.6064H14.252M14.252 16.6064C14.252 17.1847 14.0218 17.7398 13.6128 18.1487C13.2039 18.5577 12.6493 18.7874 12.071 18.7874C11.4928 18.7874 10.9383 18.5567 10.5295 18.1479C10.1207 17.7391 9.891 17.1846 9.891 16.6064M14.252 16.6064C14.252 16.0281 14.0218 15.474 13.6128 15.0651C13.2039 14.6561 12.6493 14.4264 12.071 14.4264C11.4928 14.4264 10.9383 14.6561 10.5295 15.0649C10.1207 15.4737 9.891 16.0282 9.891 16.6064M9.891 16.6064H1.5M20 3.3924H16.895M12.534 3.3924H1.5M12.534 3.3924C12.534 2.81423 12.7637 2.25974 13.1725 1.85091C13.5813 1.44208 14.1358 1.2124 14.714 1.2124C15.0003 1.2124 15.2838 1.26879 15.5483 1.37835C15.8127 1.4879 16.0531 1.64848 16.2555 1.85091C16.4579 2.05334 16.6185 2.29366 16.7281 2.55815C16.8376 2.82264 16.894 3.10612 16.894 3.3924C16.894 3.67868 16.8376 3.96216 16.7281 4.22665C16.6185 4.49114 16.4579 4.73146 16.2555 4.93389C16.0531 5.13633 15.8127 5.2969 15.5483 5.40646C15.2838 5.51602 15.0003 5.5724 14.714 5.5724C14.1358 5.5724 13.5813 5.34272 13.1725 4.93389C12.7637 4.52507 12.534 3.97057 12.534 3.3924Z" stroke="black" stroke-width="1.5" stroke-miterlimit="10" stroke-linecap="round"/>
</svg>
