<svg width="16" height="15" viewBox="0 0 16 15" fill="none" xmlns="http://www.w3.org/2000/svg">
<path fill-rule="evenodd" clip-rule="evenodd" d="M4.97151 0.223671C5.75322 0.187685 6.00246 0.179688 7.99373 0.179688C9.985 0.179688 10.2342 0.188351 11.0153 0.223671C11.7963 0.258992 12.3295 0.383613 12.796 0.564213C13.2845 0.748812 13.7276 1.03737 14.0942 1.41057C14.4674 1.77644 14.7553 2.21894 14.9392 2.70809C15.1205 3.17459 15.2444 3.70773 15.2804 4.48744C15.3164 5.27049 15.3244 5.51973 15.3244 7.51033C15.3244 9.5016 15.3157 9.75084 15.2804 10.5326C15.2451 11.3123 15.1205 11.8454 14.9392 12.3119C14.7552 12.8011 14.4669 13.2444 14.0942 13.6108C13.7276 13.984 13.2845 14.2719 12.796 14.4558C12.3295 14.6371 11.7963 14.761 11.0166 14.797C10.2342 14.833 9.985 14.841 7.99373 14.841C6.00246 14.841 5.75322 14.8323 4.97151 14.797C4.19179 14.7617 3.65865 14.6371 3.19216 14.4558C2.70295 14.2718 2.25971 13.9835 1.8933 13.6108C1.52036 13.2447 1.23175 12.8016 1.04761 12.3126C0.867011 11.8461 0.743057 11.3129 0.70707 10.5332C0.671083 9.75018 0.663086 9.50094 0.663086 7.51033C0.663086 5.51906 0.671749 5.26982 0.70707 4.48877C0.74239 3.70773 0.867011 3.17459 1.04761 2.70809C1.23203 2.21899 1.52085 1.77598 1.89397 1.4099C2.25986 1.03704 2.70265 0.748441 3.19149 0.564213C3.65799 0.383613 4.19113 0.259658 4.97084 0.223671H4.97151ZM10.956 1.54319C10.1829 1.50787 9.95101 1.50054 7.99373 1.50054C6.03645 1.50054 5.80453 1.50787 5.03148 1.54319C4.31641 1.57584 3.92856 1.69513 3.66998 1.79576C3.32811 1.92905 3.08353 2.08699 2.82696 2.34356C2.58375 2.58018 2.39657 2.86822 2.27916 3.18658C2.17853 3.44516 2.05924 3.83301 2.02659 4.54809C1.99127 5.32114 1.98393 5.55305 1.98393 7.51033C1.98393 9.46762 1.99127 9.69953 2.02659 10.4726C2.05924 11.1877 2.17853 11.5755 2.27916 11.8341C2.39645 12.152 2.58372 12.4405 2.82696 12.6771C3.06354 12.9203 3.3521 13.1076 3.66998 13.2249C3.92856 13.3255 4.31641 13.4448 5.03148 13.4775C5.80453 13.5128 6.03578 13.5201 7.99373 13.5201C9.95168 13.5201 10.1829 13.5128 10.956 13.4775C11.671 13.4448 12.0589 13.3255 12.3175 13.2249C12.6594 13.0916 12.9039 12.9337 13.1605 12.6771C13.4037 12.4405 13.591 12.152 13.7083 11.8341C13.8089 11.5755 13.9282 11.1877 13.9609 10.4726C13.9962 9.69953 14.0035 9.46762 14.0035 7.51033C14.0035 5.55305 13.9962 5.32114 13.9609 4.54809C13.9282 3.83301 13.8089 3.44516 13.7083 3.18658C13.575 2.84471 13.4171 2.60013 13.1605 2.34356C12.9239 2.10036 12.6358 1.91319 12.3175 1.79576C12.0589 1.69513 11.671 1.57584 10.956 1.54319ZM7.05741 9.77017C7.58032 9.98785 8.16259 10.0172 8.70476 9.85329C9.24692 9.68935 9.71536 9.34227 10.0301 8.87133C10.3448 8.40039 10.4862 7.83479 10.4302 7.27116C10.3742 6.70752 10.1243 6.1808 9.7231 5.78097C9.46735 5.52538 9.15811 5.32967 8.81765 5.20794C8.47719 5.08621 8.11397 5.04148 7.75415 5.07697C7.39433 5.11246 7.04685 5.22729 6.73673 5.41319C6.42661 5.59909 6.16157 5.85144 5.96068 6.15206C5.75979 6.45269 5.62806 6.79412 5.57496 7.15177C5.52187 7.50942 5.54873 7.87439 5.65362 8.22042C5.7585 8.56644 5.93881 8.8849 6.18154 9.15288C6.42428 9.42085 6.72341 9.63168 7.05741 9.77017ZM5.32937 4.84598C5.67926 4.49609 6.09464 4.21854 6.55179 4.02918C7.00894 3.83983 7.49891 3.74236 7.99373 3.74236C8.48855 3.74236 8.97852 3.83983 9.43567 4.02918C9.89282 4.21854 10.3082 4.49609 10.6581 4.84598C11.008 5.19586 11.2855 5.61124 11.4749 6.06839C11.6642 6.52554 11.7617 7.01552 11.7617 7.51033C11.7617 8.00515 11.6642 8.49512 11.4749 8.95227C11.2855 9.40942 11.008 9.8248 10.6581 10.1747C9.95146 10.8813 8.99306 11.2783 7.99373 11.2783C6.9944 11.2783 6.03601 10.8813 5.32937 10.1747C4.62274 9.46806 4.22576 8.50966 4.22576 7.51033C4.22576 6.51101 4.62274 5.55261 5.32937 4.84598ZM12.5974 4.30351C12.6841 4.22172 12.7535 4.12336 12.8015 4.01426C12.8495 3.90517 12.8751 3.78754 12.8769 3.66836C12.8786 3.54918 12.8564 3.43086 12.8116 3.32041C12.7668 3.20996 12.7003 3.10962 12.616 3.02534C12.5317 2.94105 12.4314 2.87454 12.3209 2.82973C12.2105 2.78492 12.0922 2.76272 11.973 2.76446C11.8538 2.7662 11.7362 2.79183 11.6271 2.83984C11.518 2.88785 11.4196 2.95727 11.3378 3.04397C11.1788 3.21259 11.0917 3.43657 11.0951 3.66836C11.0984 3.90015 11.192 4.12149 11.3559 4.28541C11.5199 4.44933 11.7412 4.54291 11.973 4.54629C12.2048 4.54966 12.4288 4.46258 12.5974 4.30351Z" fill="black"/>
</svg>
