<svg width="17" height="21" viewBox="0 0 17 21" fill="none" xmlns="http://www.w3.org/2000/svg">
<path d="M8.24048 0.195312C6.10262 0.197835 4.05305 1.04821 2.54136 2.5599C1.02967 4.0716 0.179288 6.12117 0.176766 8.25902C0.174206 10.0061 0.744877 11.7057 1.80124 13.0972C1.80124 13.0972 2.02116 13.3868 2.05708 13.4286L8.24048 20.7211L14.4268 13.4249C14.4591 13.3861 14.6797 13.0972 14.6797 13.0972L14.6804 13.095C15.7363 11.7041 16.3067 10.0053 16.3042 8.25902C16.3017 6.12117 15.4513 4.0716 13.9396 2.5599C12.4279 1.04821 10.3783 0.197835 8.24048 0.195312ZM8.24048 11.1913C7.66053 11.1913 7.09361 11.0193 6.6114 10.6971C6.12919 10.3749 5.75336 9.91695 5.53142 9.38115C5.30949 8.84535 5.25142 8.25577 5.36456 7.68697C5.4777 7.11817 5.75697 6.59569 6.16706 6.1856C6.57714 5.77552 7.09962 5.49625 7.66842 5.38311C8.23722 5.26996 8.8268 5.32803 9.3626 5.54997C9.8984 5.7719 10.3564 6.14774 10.6786 6.62995C11.0008 7.11215 11.1727 7.67908 11.1727 8.25902C11.1718 9.03641 10.8625 9.78168 10.3128 10.3314C9.76313 10.8811 9.01786 11.1903 8.24048 11.1913Z" fill="white"/>
</svg>
