<svg width="16" height="10" viewBox="0 0 16 10" fill="none" xmlns="http://www.w3.org/2000/svg">
<path d="M13.3981 0.922126C12.4474 0.540541 11.4442 0.268198 10.4136 0.111885C10.4043 0.110509 10.3947 0.111697 10.3861 0.115285C10.3776 0.118873 10.3705 0.124684 10.3659 0.13192C10.2367 0.332277 10.0938 0.594343 9.99392 0.799508C8.88298 0.652052 7.75296 0.652052 6.64202 0.799508C6.5306 0.570957 6.40456 0.348075 6.26449 0.13192C6.25979 0.124764 6.25272 0.119019 6.24422 0.115443C6.23571 0.111867 6.22617 0.110626 6.21684 0.111885C5.18598 0.267361 4.18261 0.539846 3.23239 0.922126C3.22425 0.92484 3.21745 0.929939 3.21314 0.936552C1.31269 3.42017 0.791307 5.84288 1.04696 8.23513C1.04788 8.24635 1.05612 8.25757 1.0662 8.26479C2.17287 8.98175 3.41069 9.52916 4.72691 9.88367C4.7362 9.88623 4.74618 9.88614 4.75541 9.8834C4.76464 9.88066 4.77263 9.87542 4.77822 9.86844C5.06045 9.53184 5.31152 9.17681 5.52777 8.80334C5.53228 8.79565 5.53382 8.78689 5.53217 8.77837C5.53052 8.76985 5.52576 8.76202 5.51861 8.75606C5.51387 8.75215 5.50825 8.74914 5.50211 8.74724C5.10733 8.61454 4.72498 8.45511 4.35854 8.2704C4.34831 8.26532 4.3407 8.257 4.33729 8.24715C4.33387 8.23731 4.33492 8.22669 4.34022 8.2175C4.34334 8.21153 4.34805 8.20631 4.35396 8.20228C4.43093 8.15178 4.5079 8.09889 4.58121 8.046C4.58769 8.04144 4.59546 8.03852 4.60369 8.03753C4.61192 8.03654 4.6203 8.03753 4.62794 8.04039C7.02779 8.99889 9.62556 8.99889 11.9961 8.04039C12.004 8.03739 12.0127 8.03633 12.0212 8.03732C12.0298 8.0383 12.0379 8.0413 12.0446 8.046C12.118 8.09889 12.1949 8.15178 12.2719 8.20228C12.2781 8.20626 12.2831 8.21154 12.2865 8.21763C12.2898 8.22373 12.2914 8.23045 12.291 8.2372C12.2906 8.24395 12.2884 8.25051 12.2844 8.2563C12.2804 8.2621 12.2749 8.26694 12.2682 8.2704C11.9026 8.4568 11.5198 8.61604 11.1237 8.74644C11.1174 8.74844 11.1117 8.75163 11.1069 8.75579C11.1022 8.75994 11.0985 8.76496 11.0963 8.77048C11.0941 8.77584 11.0933 8.78151 11.0938 8.78716C11.0942 8.79281 11.096 8.79832 11.099 8.80334C11.3189 9.17601 11.5709 9.53184 11.8476 9.86844C11.8532 9.87542 11.8612 9.88066 11.8704 9.8834C11.8797 9.88614 11.8897 9.88623 11.8989 9.88367C13.2174 9.53026 14.4572 8.98278 15.5651 8.26479C15.5707 8.26143 15.5753 8.25702 15.5786 8.25188C15.582 8.24675 15.5839 8.24102 15.5844 8.23513C15.8904 5.46941 15.0722 3.06674 13.4164 0.937353C13.4147 0.933836 13.4122 0.930664 13.4091 0.928041C13.4059 0.925418 13.4022 0.923403 13.3981 0.922126ZM5.88605 6.77814C5.16307 6.77814 4.56838 6.19791 4.56838 5.48624C4.56838 4.77378 5.15208 4.19354 5.88605 4.19354C6.62552 4.19354 7.21472 4.77859 7.20372 5.48624C7.20372 6.19791 6.62002 6.77814 5.88605 6.77814ZM10.7572 6.77814C10.0352 6.77814 9.43954 6.19791 9.43954 5.48624C9.43954 4.77378 10.0232 4.19354 10.7572 4.19354C11.4967 4.19354 12.0868 4.77859 12.0749 5.48624C12.0749 6.19791 11.4967 6.77814 10.7572 6.77814Z" fill="#262626"/>
</svg>
