<svg width="15" height="12" viewBox="0 0 15 12" fill="none" xmlns="http://www.w3.org/2000/svg">
<path d="M15.0021 1.52803C14.463 1.75706 13.8762 1.92189 13.2719 1.98609C13.8993 1.61901 14.3692 1.03909 14.5933 0.355126C14.0045 0.700037 13.3595 0.941896 12.6869 1.06997C12.4058 0.774016 12.0657 0.538244 11.688 0.377348C11.3103 0.216451 10.903 0.133878 10.4915 0.134773C8.82643 0.134773 7.48734 1.46383 7.48734 3.09479C7.48734 3.32382 7.51553 3.55285 7.56134 3.7732C5.06817 3.64481 2.84457 2.4719 1.36628 0.676112C1.09692 1.12916 0.955769 1.64502 0.957507 2.17C0.957507 3.19716 1.48786 4.10286 2.2966 4.63553C1.82 4.61704 1.35455 4.48804 0.938126 4.25902V4.29545C0.938126 5.73382 1.97064 6.92581 3.34673 7.19995C3.08835 7.26604 2.82256 7.29985 2.55561 7.30058C2.36003 7.30058 2.17502 7.2815 1.98826 7.25547C2.36884 8.42837 3.47711 9.28029 4.79682 9.30805C3.76431 10.1044 2.47103 10.5729 1.06675 10.5729C0.814788 10.5729 0.582209 10.5642 0.34082 10.5365C1.67286 11.378 3.25334 11.8638 4.9554 11.8638C10.4809 11.8638 13.5044 7.3561 13.5044 3.44354C13.5044 3.31514 13.5044 3.18675 13.4956 3.05835C14.0806 2.63673 14.5933 2.11448 15.0021 1.52803Z" fill="#262626"/>
</svg>
