<svg width="17" height="17" viewBox="0 0 17 17" fill="none" xmlns="http://www.w3.org/2000/svg">
<path d="M6.49872 2.90852C6.19956 3.65782 5.97546 4.43496 5.82972 5.22852H11.1937C11.0477 4.43493 10.8232 3.65779 10.5237 2.90852C10.2227 2.17552 9.87572 1.61452 9.51572 1.24552C9.15772 0.877516 8.81872 0.728516 8.51172 0.728516C8.20472 0.728516 7.86572 0.877516 7.50772 1.24552C7.14772 1.61552 6.80072 2.17552 6.49872 2.90852ZM6.40272 1.00952C6.08872 1.43552 5.81272 1.95052 5.57472 2.52752C5.25472 3.30752 4.99472 4.22152 4.81272 5.22852H1.31572C1.81522 4.20423 2.52728 3.29816 3.40444 2.57067C4.2816 1.84318 5.30373 1.31097 6.40272 1.00952ZM10.6217 1.00952C10.9347 1.43552 11.2117 1.95052 11.4487 2.52752C11.7687 3.30752 12.0287 4.22152 12.2107 5.22852H15.7077C15.2082 4.20423 14.4962 3.29816 13.619 2.57067C12.7418 1.84318 11.7207 1.31097 10.6217 1.00952ZM16.1137 6.22852H12.3617C12.4597 7.02352 12.5117 7.86252 12.5117 8.72852C12.5117 9.59452 12.4597 10.4335 12.3617 11.2285H16.1137C16.3782 10.4216 16.5126 9.57769 16.5117 8.72852C16.5126 7.87934 16.3782 7.03544 16.1137 6.22852ZM15.7077 12.2285H12.2107C12.0287 13.2355 11.7697 14.1505 11.4487 14.9285C11.2351 15.4662 10.9574 15.9763 10.6217 16.4475C11.7205 16.1459 12.7425 15.6137 13.6194 14.8862C14.4964 14.1587 15.2083 13.2527 15.7077 12.2285ZM8.51172 16.7285C8.81872 16.7285 9.15772 16.5795 9.51572 16.2115C9.87572 15.8415 10.2227 15.2815 10.5237 14.5485C10.8232 13.7992 11.0477 13.0221 11.1937 12.2285H5.82972C5.99772 13.1015 6.22672 13.8855 6.49972 14.5485C6.80072 15.2815 7.14772 15.8425 7.50772 16.2115C7.86572 16.5795 8.20472 16.7285 8.51172 16.7285ZM6.40172 16.4475C5.3031 16.1458 4.28136 15.6135 3.40456 14.886C2.52775 14.1585 1.81601 13.2526 1.31672 12.2285H4.81372C4.99572 13.2355 5.25472 14.1505 5.57572 14.9285C5.81272 15.5065 6.08972 16.0215 6.40372 16.4475M0.910723 11.2285H4.66172C4.56203 10.3989 4.51194 9.56409 4.51172 8.72852C4.51172 7.86252 4.56372 7.02352 4.66172 6.22852H0.909723C0.645213 7.03544 0.510865 7.87934 0.511723 8.72852C0.511723 9.60152 0.652723 10.4415 0.910723 11.2285ZM5.51172 8.72852C5.51172 7.85352 5.56772 7.01352 5.66972 6.22852H11.3537C11.4557 7.01352 11.5117 7.85352 11.5117 8.72852C11.5117 9.60352 11.4557 10.4425 11.3537 11.2285H5.66972C5.56212 10.3996 5.50934 9.56442 5.51172 8.72852Z" fill="white"/>
</svg>
